# xmcd
#
# Track frame offsets:
#	150
#	15087
#	29237
#	47450
#	62413
#	78726
#	101823
#	115324
#	132652
#	146620
#	166573
#	181740
#
# Disc length: 2627 seconds
#
# Revision: 1
# Processed by: cddbd v1.5.1PL0 Copyright (c) Steve Scherf et al.
# Submitted via: audiograbber 1.83.01
#
DISCID=990a410c
DTITLE=Baron Guy - You Are My Everything
DYEAR=1900
DGENRE=
TTITLE0=You Are My Everything
TTITLE1=You're All I Need
TTITLE2=I've Always Wanted You
TTITLE3=More Than Friends
TTITLE4=Baby Why
TTITLE5=In This Love Affair Alone
TTITLE6=Moments With You
TTITLE7=Crying in the Night
TTITLE8=Your Moves
TTITLE9=Everytime We Make Love
TTITLE10=I'm Hurting for You
TTITLE11=Wild Party
EXTD=
EXTT0=
EXTT1=
EXTT2=
EXTT3=
EXTT4=
EXTT5=
EXTT6=
EXTT7=
EXTT8=
EXTT9=
EXTT10=
EXTT11=
PLAYORDER=
